<svg id="Layer_1" data-name="Layer 1" xmlns="http://www.w3.org/2000/svg" xmlns:xlink="http://www.w3.org/1999/xlink" viewBox="0 0 352.5 384"><defs><style>.cls-1{fill:none;}.cls-2{fill:#00a79d;}.cls-3{clip-path:url(#clip-path);}</style><clipPath id="clip-path" transform="translate(-243.75 -106.28)"><rect class="cls-1" x="243" y="106.28" width="354" height="384"/></clipPath></defs><title>humidity</title><path class="cls-2" d="M363.75,445.28a7.5,7.5,0,0,0,0-15,60.07,60.07,0,0,1-60-60c0-16.68,6.61-36.35,17.68-52.63A7.5,7.5,0,0,0,309,309.22c-12.69,18.67-20.27,41.49-20.27,61.06a75.09,75.09,0,0,0,75,75Zm0,0" transform="translate(-243.75 -106.28)"/><g class="cls-3"><path class="cls-2" d="M291,449a7.5,7.5,0,1,1-7.5-7.5A7.5,7.5,0,0,1,291,449Zm0,0" transform="translate(-243.75 -106.28)"/><path class="cls-2" d="M363.75,106.28a7.5,7.5,0,0,0-7.1,5.08c-26.51,70.65-55,128.7-84.85,172.56-17.83,26.23-28.05,57.71-28.05,86.36A120.41,120.41,0,0,0,257,425.16a7.5,7.5,0,0,0,13.33-6.87,103.89,103.89,0,0,1-11.59-48c0-25.72,9.28-54.12,25.46-77.93,27.86-41,54.58-94,79.54-157.62,18.94,48.25,39.09,90.74,60,126.54,6.38,11,13,21.41,19.52,31.08,16.18,23.81,25.46,52.21,25.46,77.93,0,58.89-48.22,105-105,105A105.16,105.16,0,0,1,314,462.76a7.5,7.5,0,1,0-7.12,13.2A120.06,120.06,0,0,0,473.25,419.4a97.54,97.54,0,0,0,123-94.12c0-24.77-9.52-53.17-25.47-76-23.33-33.37-46.35-82.23-64.82-137.61a1.72,1.72,0,0,1-.07-.21,7.5,7.5,0,0,0-14.25-.08c-12.48,37.46-33,89.94-60.85,131.92-20.76-37.14-41.36-82.46-59.93-131.93a7.51,7.51,0,0,0-7.11-5.11Zm135,30.33c13.67,37.68,33.69,84,59.74,121.29,14.25,20.38,22.76,45.57,22.76,67.38a82.53,82.53,0,0,1-102.69,80,119.47,119.47,0,0,0,5.19-35c0-28.65-10.22-60.13-28.05-86.36-5.56-8.19-11.13-17-16.6-26.16,26-37.22,46-83.49,59.65-121.15Zm0,0" transform="translate(-243.75 -106.28)"/></g></svg>