<?xml version="1.0" encoding="utf-8"?>
<!-- Generator: Adobe Illustrator 22.1.0, SVG Export Plug-In . SVG Version: 6.00 Build 0)  -->
<svg version="1.1" id="Layer_1" xmlns="http://www.w3.org/2000/svg" xmlns:xlink="http://www.w3.org/1999/xlink" x="0px" y="0px"
	 viewBox="0 0 841.9 595.3" style="enable-background:new 0 0 841.9 595.3;" xml:space="preserve">
<style type="text/css">
	.st0{fill:#00A79D;}
</style>
<g>
	<g>
		<path class="st0" d="M444,220.5c-1.1,0-2.3-0.4-3.1-1.3c-9.4-9.5-22-14.8-35.4-14.9c-0.1,0-0.2,0-0.3,0
			c-13.3,0-25.8,5.1-35.2,14.5c-1.7,1.7-4.5,1.7-6.2,0c-1.7-1.7-1.7-4.5,0-6.2c11.2-11.1,26-17.2,41.8-17
			c15.7,0.1,30.5,6.3,41.6,17.5c1.7,1.7,1.7,4.5,0,6.2C446.3,220.1,445.2,220.5,444,220.5z"/>
		<path class="st0" d="M436.4,240.7c-1,0-2-0.4-2.8-1.2c-15.3-15.4-40.3-15.6-55.7-0.3c-1.5,1.5-4,1.5-5.5,0c-1.5-1.5-1.5-4,0-5.5
			c9-8.9,20.8-13.7,33.5-13.7c12.6,0.1,24.4,5.1,33.3,14c1.5,1.5,1.5,4,0,5.5C438.3,240.3,437.4,240.7,436.4,240.7z"/>
		<path class="st0" d="M427.5,261.3c-0.9,0-1.8-0.3-2.4-1c-5.1-5.1-11.9-8-19.1-8c-0.1,0-0.1,0-0.2,0c-7.2,0-13.9,2.8-19,7.8
			c-1.3,1.3-3.5,1.3-4.8,0c-1.3-1.3-1.3-3.5,0-4.8c13.3-13.1,34.8-13,47.9,0.3c1.3,1.3,1.3,3.5,0,4.8
			C429.3,261,428.4,261.3,427.5,261.3z"/>
	</g>
	<path class="st0" d="M440.2,247.5c8.6,9.3,13.5,22.1,12.4,35.9c-1.8,23.2-20.8,41.9-44.1,43.4c-27.5,1.7-50.4-20.1-50.4-47.2
		c0-12.4,4.8-23.7,12.6-32.1c0.7-0.8,0.7-1.9,0-2.7l-7.1-7.1c-0.8-0.8-2-0.8-2.8,0c-11.1,11.8-17.6,28.1-16.4,45.9
		c1.9,30.3,26.4,54.9,56.7,57c35.8,2.5,65.5-25.8,65.5-61c0-16.2-6.3-30.9-16.6-41.8c-0.7-0.8-2-0.8-2.8,0l-7.1,7.1
		C439.5,245.5,439.5,246.7,440.2,247.5z"/>
</g>
<circle class="st0" cx="406" cy="281" r="7.9"/>
</svg>
